<svg width="24" height="24" viewBox="0 0 24 24" fill="none" xmlns="http://www.w3.org/2000/svg">
<g id="ic_more_vert_36px 1">
<path id="Vector" d="M12 8C13.1067 8 14 7.10667 14 6C14 4.89333 13.1067 4 12 4C10.8933 4 10 4.89333 10 6C10 7.10667 10.8933 8 12 8ZM12 10C10.8933 10 10 10.8933 10 12C10 13.1067 10.8933 14 12 14C13.1067 14 14 13.1067 14 12C14 10.8933 13.1067 10 12 10ZM12 16C10.8933 16 10 16.8933 10 18C10 19.1067 10.8933 20 12 20C13.1067 20 14 19.1067 14 18C14 16.8933 13.1067 16 12 16Z" fill="#8B8B8B"/>
</g>
</svg>
